# xmcd
# Track frame offsets:
# 150
# 10500
# 23385
# 36234
# 48366
# 58485
# 70199
# 84762
# 97653
# 106225
# 115887
# 128305
# 137591
# 149528
# 160114
# 169644
#
# Disc length: 2418 seconds
# Revision: 0
# Processed by: cddbd v1.5.1PL2 Copyright (c) Steve Scherf et al.
# Submitted via: VisiTrax 2.9.10.228 - For more info visit www.synapsa.com
#
DISCID=bb097010
DTITLE=Various Artist - The Original Country Legends (Vol 2)
DYEAR=1900
DGENRE=
TTITLE0=Johnny Paycheck - A-11
TTITLE1=Al Dexter and His Troopers - Pistal Packin' Mama
TTITLE2=Faron Young - I'm A Free Man
TTITLE3=Rocky Bill Ford - Beer Drinking Blues
TTITLE4=Dave Dudley - Six Days On The Road
TTITLE5=Patsy Cline - Walkin' After Midnight
TTITLE6=Cowboy Copas - Satified Mind
TTITLE7=Maddox Brothers and Rose - Mama Says It's Naughty
TTITLE8=Sonny James - Bimbo
TTITLE9=Hank Locklin - Send Me The Pillow You Dream On
TTITLE10=Ferlin Husky - The Letter You Promised To Write
TTITLE11=Wynn Stewart - Above And Beyond
TTITLE12=Webb Pierce - High Geared Daddy
TTITLE13=George Jones - No Money In This Deal
TTITLE14=T. Texas Tyler - Careless Love
TTITLE15=Floyd Cramer - Fancy Pants
EXTD=BRCD 178
EXTT0=
EXTT1=
EXTT2=
EXTT3=
EXTT4=
EXTT5=
EXTT6=
EXTT7=
EXTT8=
EXTT9=
EXTT10=
EXTT11=
EXTT12=
EXTT13=
EXTT14=
EXTT15=
PLAYORDER=
